<svg xmlns="http://www.w3.org/2000/svg" viewBox="0 0 300 300"><title>alipay</title><rect width="12" height="12"/><rect y="12" width="12" height="12"/><rect y="24" width="12" height="12"/><rect y="36" width="12" height="12"/><rect y="48" width="12" height="12"/><rect y="60" width="12" height="12"/><rect y="72" width="12" height="12"/><rect y="96" width="12" height="12"/><rect y="120" width="12" height="12"/><rect y="168" width="12" height="12"/><rect y="192" width="12" height="12"/><rect y="216" width="12" height="12"/><rect y="228" width="12" height="12"/><rect y="240" width="12" height="12"/><rect y="252" width="12" height="12"/><rect y="264" width="12" height="12"/><rect y="276" width="12" height="12"/><rect y="288" width="12" height="12"/><rect x="12" width="12" height="12"/><rect x="12" y="72" width="12" height="12"/><rect x="12" y="96" width="12" height="12"/><rect x="12" y="108" width="12" height="12"/><rect x="12" y="144" width="12" height="12"/><rect x="12" y="168" width="12" height="12"/><rect x="12" y="192" width="12" height="12"/><rect x="12" y="216" width="12" height="12"/><rect x="12" y="288" width="12" height="12"/><rect x="24" width="12" height="12"/><rect x="24" y="24" width="12" height="12"/><rect x="24" y="36" width="12" height="12"/><rect x="24" y="48" width="12" height="12"/><rect x="24" y="72" width="12" height="12"/><rect x="24" y="96" width="12" height="12"/><rect x="24" y="132" width="12" height="12"/><rect x="24" y="168" width="12" height="12"/><rect x="24" y="180" width="12" height="12"/><rect x="24" y="216" width="12" height="12"/><rect x="24" y="240" width="12" height="12"/><rect x="24" y="252" width="12" height="12"/><rect x="24" y="264" width="12" height="12"/><rect x="24" y="288" width="12" height="12"/><rect x="36" width="12" height="12"/><rect x="36" y="24" width="12" height="12"/><rect x="36" y="36" width="12" height="12"/><rect x="36" y="48" width="12" height="12"/><rect x="36" y="72" width="12" height="12"/><rect x="36" y="108" width="12" height="12"/><rect x="36" y="132" width="12" height="12"/><rect x="36" y="144" width="12" height="12"/><rect x="36" y="180" width="12" height="12"/><rect x="36" y="216" width="12" height="12"/><rect x="36" y="240" width="12" height="12"/><rect x="36" y="252" width="12" height="12"/><rect x="36" y="264" width="12" height="12"/><rect x="36" y="288" width="12" height="12"/><rect x="48" width="12" height="12"/><rect x="48" y="24" width="12" height="12"/><rect x="48" y="36" width="12" height="12"/><rect x="48" y="48" width="12" height="12"/><rect x="48" y="72" width="12" height="12"/><rect x="48" y="108" width="12" height="12"/><rect x="48" y="120" width="12" height="12"/><rect x="48" y="156" width="12" height="12"/><rect x="48" y="192" width="12" height="12"/><rect x="48" y="216" width="12" height="12"/><rect x="48" y="240" width="12" height="12"/><rect x="48" y="252" width="12" height="12"/><rect x="48" y="264" width="12" height="12"/><rect x="48" y="288" width="12" height="12"/><rect x="60" width="12" height="12"/><rect x="60" y="72" width="12" height="12"/><rect x="60" y="96" width="12" height="12"/><rect x="60" y="108" width="12" height="12"/><rect x="60" y="156" width="12" height="12"/><rect x="60" y="216" width="12" height="12"/><rect x="60" y="288" width="12" height="12"/><rect x="72" width="12" height="12"/><rect x="72" y="12" width="12" height="12"/><rect x="72" y="24" width="12" height="12"/><rect x="72" y="36" width="12" height="12"/><rect x="72" y="48" width="12" height="12"/><rect x="72" y="60" width="12" height="12"/><rect x="72" y="72" width="12" height="12"/><rect x="72" y="96" width="12" height="12"/><rect x="72" y="120" width="12" height="12"/><rect x="72" y="144" width="12" height="12"/><rect x="72" y="168" width="12" height="12"/><rect x="72" y="192" width="12" height="12"/><rect x="72" y="216" width="12" height="12"/><rect x="72" y="228" width="12" height="12"/><rect x="72" y="240" width="12" height="12"/><rect x="72" y="252" width="12" height="12"/><rect x="72" y="264" width="12" height="12"/><rect x="72" y="276" width="12" height="12"/><rect x="72" y="288" width="12" height="12"/><rect x="84" y="132" width="12" height="12"/><rect x="84" y="156" width="12" height="12"/><rect x="84" y="168" width="12" height="12"/><rect x="84" y="192" width="12" height="12"/><rect x="96" width="12" height="12"/><rect x="96" y="12" width="12" height="12"/><rect x="96" y="48" width="12" height="12"/><rect x="96" y="60" width="12" height="12"/><rect x="96" y="72" width="12" height="12"/><rect x="96" y="84" width="12" height="12"/><rect x="96" y="96" width="12" height="12"/><rect x="96" y="108" width="12" height="12"/><rect x="96" y="120" width="12" height="12"/><rect x="96" y="144" width="12" height="12"/><rect x="96" y="156" width="12" height="12"/><rect x="96" y="180" width="12" height="12"/><rect x="96" y="192" width="12" height="12"/><rect x="96" y="204" width="12" height="12"/><rect x="96" y="228" width="12" height="12"/><rect x="96" y="264" width="12" height="12"/><rect x="96" y="276" width="12" height="12"/><rect x="96" y="288" width="12" height="12"/><rect x="108" width="12" height="12"/><rect x="108" y="24" width="12" height="12"/><rect x="108" y="36" width="12" height="12"/><rect x="108" y="48" width="12" height="12"/><rect x="108" y="96" width="12" height="12"/><rect x="108" y="108" width="12" height="12"/><rect x="108" y="132" width="12" height="12"/><rect x="108" y="144" width="12" height="12"/><rect x="108" y="156" width="12" height="12"/><rect x="108" y="168" width="12" height="12"/><rect x="108" y="192" width="12" height="12"/><rect x="108" y="204" width="12" height="12"/><rect x="108" y="240" width="12" height="12"/><rect x="108" y="252" width="12" height="12"/><rect x="108" y="264" width="12" height="12"/><rect x="120" y="36" width="12" height="12"/><rect x="120" y="48" width="12" height="12"/><rect x="120" y="72" width="12" height="12"/><rect x="120" y="96" width="12" height="12"/><rect x="120" y="168" width="12" height="12"/><rect x="120" y="180" width="12" height="12"/><rect x="120" y="192" width="12" height="12"/><rect x="120" y="204" width="12" height="12"/><rect x="120" y="216" width="12" height="12"/><rect x="120" y="228" width="12" height="12"/><rect x="120" y="252" width="12" height="12"/><rect x="132" width="12" height="12"/><rect x="132" y="36" width="12" height="12"/><rect x="132" y="48" width="12" height="12"/><rect x="132" y="84" width="12" height="12"/><rect x="132" y="96" width="12" height="12"/><rect x="132" y="120" width="12" height="12"/><rect x="132" y="144" width="12" height="12"/><rect x="132" y="168" width="12" height="12"/><rect x="132" y="192" width="12" height="12"/><rect x="132" y="204" width="12" height="12"/><rect x="132" y="216" width="12" height="12"/><rect x="132" y="228" width="12" height="12"/><rect x="132" y="240" width="12" height="12"/><rect x="132" y="252" width="12" height="12"/><rect x="132" y="276" width="12" height="12"/><rect x="132" y="288" width="12" height="12"/><rect x="144" width="12" height="12"/><rect x="144" y="24" width="12" height="12"/><rect x="144" y="36" width="12" height="12"/><rect x="144" y="48" width="12" height="12"/><rect x="144" y="72" width="12" height="12"/><rect x="144" y="84" width="12" height="12"/><rect x="144" y="96" width="12" height="12"/><rect x="144" y="108" width="12" height="12"/><rect x="144" y="120" width="12" height="12"/><rect x="144" y="156" width="12" height="12"/><rect x="144" y="180" width="12" height="12"/><rect x="144" y="252" width="12" height="12"/><rect x="144" y="264" width="12" height="12"/><rect x="144" y="276" width="12" height="12"/><rect x="156" y="24" width="12" height="12"/><rect x="156" y="120" width="12" height="12"/><rect x="156" y="144" width="12" height="12"/><rect x="156" y="156" width="12" height="12"/><rect x="156" y="180" width="12" height="12"/><rect x="156" y="192" width="12" height="12"/><rect x="156" y="204" width="12" height="12"/><rect x="156" y="252" width="12" height="12"/><rect x="156" y="276" width="12" height="12"/><rect x="156" y="288" width="12" height="12"/><rect x="168" width="12" height="12"/><rect x="168" y="12" width="12" height="12"/><rect x="168" y="48" width="12" height="12"/><rect x="168" y="60" width="12" height="12"/><rect x="168" y="72" width="12" height="12"/><rect x="168" y="96" width="12" height="12"/><rect x="168" y="120" width="12" height="12"/><rect x="168" y="144" width="12" height="12"/><rect x="168" y="156" width="12" height="12"/><rect x="168" y="168" width="12" height="12"/><rect x="168" y="204" width="12" height="12"/><rect x="168" y="240" width="12" height="12"/><rect x="168" y="252" width="12" height="12"/><rect x="168" y="264" width="12" height="12"/><rect x="168" y="276" width="12" height="12"/><rect x="168" y="288" width="12" height="12"/><rect x="180" width="12" height="12"/><rect x="180" y="12" width="12" height="12"/><rect x="180" y="24" width="12" height="12"/><rect x="180" y="36" width="12" height="12"/><rect x="180" y="60" width="12" height="12"/><rect x="180" y="108" width="12" height="12"/><rect x="180" y="120" width="12" height="12"/><rect x="180" y="132" width="12" height="12"/><rect x="180" y="144" width="12" height="12"/><rect x="180" y="168" width="12" height="12"/><rect x="180" y="228" width="12" height="12"/><rect x="180" y="240" width="12" height="12"/><rect x="192" y="12" width="12" height="12"/><rect x="192" y="48" width="12" height="12"/><rect x="192" y="60" width="12" height="12"/><rect x="192" y="72" width="12" height="12"/><rect x="192" y="96" width="12" height="12"/><rect x="192" y="108" width="12" height="12"/><rect x="192" y="120" width="12" height="12"/><rect x="192" y="144" width="12" height="12"/><rect x="192" y="192" width="12" height="12"/><rect x="192" y="204" width="12" height="12"/><rect x="192" y="216" width="12" height="12"/><rect x="192" y="228" width="12" height="12"/><rect x="192" y="240" width="12" height="12"/><rect x="192" y="264" width="12" height="12"/><rect x="192" y="288" width="12" height="12"/><rect x="204" y="96" width="12" height="12"/><rect x="204" y="144" width="12" height="12"/><rect x="204" y="156" width="12" height="12"/><rect x="204" y="180" width="12" height="12"/><rect x="204" y="192" width="12" height="12"/><rect x="204" y="240" width="12" height="12"/><rect x="204" y="252" width="12" height="12"/><rect x="204" y="264" width="12" height="12"/><rect x="204" y="288" width="12" height="12"/><rect x="216" width="12" height="12"/><rect x="216" y="12" width="12" height="12"/><rect x="216" y="24" width="12" height="12"/><rect x="216" y="36" width="12" height="12"/><rect x="216" y="48" width="12" height="12"/><rect x="216" y="60" width="12" height="12"/><rect x="216" y="72" width="12" height="12"/><rect x="216" y="96" width="12" height="12"/><rect x="216" y="132" width="12" height="12"/><rect x="216" y="144" width="12" height="12"/><rect x="216" y="156" width="12" height="12"/><rect x="216" y="168" width="12" height="12"/><rect x="216" y="180" width="12" height="12"/><rect x="216" y="192" width="12" height="12"/><rect x="216" y="216" width="12" height="12"/><rect x="216" y="240" width="12" height="12"/><rect x="216" y="252" width="12" height="12"/><rect x="228" width="12" height="12"/><rect x="228" y="72" width="12" height="12"/><rect x="228" y="96" width="12" height="12"/><rect x="228" y="132" width="12" height="12"/><rect x="228" y="144" width="12" height="12"/><rect x="228" y="180" width="12" height="12"/><rect x="228" y="192" width="12" height="12"/><rect x="228" y="240" width="12" height="12"/><rect x="228" y="276" width="12" height="12"/><rect x="240" width="12" height="12"/><rect x="240" y="24" width="12" height="12"/><rect x="240" y="36" width="12" height="12"/><rect x="240" y="48" width="12" height="12"/><rect x="240" y="72" width="12" height="12"/><rect x="240" y="96" width="12" height="12"/><rect x="240" y="132" width="12" height="12"/><rect x="240" y="144" width="12" height="12"/><rect x="240" y="156" width="12" height="12"/><rect x="240" y="168" width="12" height="12"/><rect x="240" y="180" width="12" height="12"/><rect x="240" y="192" width="12" height="12"/><rect x="240" y="204" width="12" height="12"/><rect x="240" y="216" width="12" height="12"/><rect x="240" y="228" width="12" height="12"/><rect x="240" y="240" width="12" height="12"/><rect x="240" y="252" width="12" height="12"/><rect x="252" width="12" height="12"/><rect x="252" y="24" width="12" height="12"/><rect x="252" y="36" width="12" height="12"/><rect x="252" y="48" width="12" height="12"/><rect x="252" y="72" width="12" height="12"/><rect x="252" y="108" width="12" height="12"/><rect x="252" y="132" width="12" height="12"/><rect x="252" y="144" width="12" height="12"/><rect x="252" y="156" width="12" height="12"/><rect x="252" y="168" width="12" height="12"/><rect x="252" y="204" width="12" height="12"/><rect x="252" y="228" width="12" height="12"/><rect x="252" y="252" width="12" height="12"/><rect x="252" y="264" width="12" height="12"/><rect x="252" y="288" width="12" height="12"/><rect x="264" width="12" height="12"/><rect x="264" y="24" width="12" height="12"/><rect x="264" y="36" width="12" height="12"/><rect x="264" y="48" width="12" height="12"/><rect x="264" y="72" width="12" height="12"/><rect x="264" y="120" width="12" height="12"/><rect x="264" y="144" width="12" height="12"/><rect x="264" y="204" width="12" height="12"/><rect x="264" y="216" width="12" height="12"/><rect x="264" y="228" width="12" height="12"/><rect x="264" y="240" width="12" height="12"/><rect x="264" y="264" width="12" height="12"/><rect x="264" y="276" width="12" height="12"/><rect x="276" width="12" height="12"/><rect x="276" y="72" width="12" height="12"/><rect x="276" y="96" width="12" height="12"/><rect x="276" y="144" width="12" height="12"/><rect x="276" y="168" width="12" height="12"/><rect x="276" y="180" width="12" height="12"/><rect x="276" y="192" width="12" height="12"/><rect x="276" y="204" width="12" height="12"/><rect x="276" y="216" width="12" height="12"/><rect x="276" y="252" width="12" height="12"/><rect x="276" y="264" width="12" height="12"/><rect x="276" y="288" width="12" height="12"/><rect x="288" width="12" height="12"/><rect x="288" y="12" width="12" height="12"/><rect x="288" y="24" width="12" height="12"/><rect x="288" y="36" width="12" height="12"/><rect x="288" y="48" width="12" height="12"/><rect x="288" y="60" width="12" height="12"/><rect x="288" y="72" width="12" height="12"/><rect x="288" y="96" width="12" height="12"/><rect x="288" y="108" width="12" height="12"/><rect x="288" y="120" width="12" height="12"/><rect x="288" y="132" width="12" height="12"/><rect x="288" y="156" width="12" height="12"/><rect x="288" y="192" width="12" height="12"/><rect x="288" y="204" width="12" height="12"/><rect x="288" y="216" width="12" height="12"/><rect x="288" y="228" width="12" height="12"/><rect x="288" y="240" width="12" height="12"/><rect x="288" y="264" width="12" height="12"/><rect x="288" y="276" width="12" height="12"/><rect x="288" y="288" width="12" height="12"/></svg>