<svg xmlns="http://www.w3.org/2000/svg" viewBox="0 0 300 300">
  <path d="M0 .5h9.1v9.1H0zM0 9.6h9.1v9.1H0zM0 18.7h9.1v9.1H0zM0 27.8h9.1v9.1H0zM0 36.9h9.1V46H0zM0 46h9.1v9.1H0z"/>
  <path d="M0 55h9.1v9.1H0zM0 73.2h9.1v9.1H0zM0 109.6h9.1v9.1H0zM0 146h9.1v9.1H0zM0 173.2h9.1v9.1H0zM0 191.4h9.1v9.1H0zM0 218.7h9.1v9.1H0zM0 236.9h9.1v9.1H0zM0 246h9.1v9.1H0z"/>
  <path d="M0 255h9.1v9.1H0zM0 264.1h9.1v9.1H0z"/>
  <path d="M0 273.2h9.1v9.1H0zM0 282.3h9.1v9.1H0z"/>
  <path d="M0 291.4h9.1v9.1H0zM9.1.5h9.1v9.1H9.1zM9.1 55h9.1v9.1H9.1zM9.1 73.2h9.1v9.1H9.1zM9.1 100.5h9.1v9.1H9.1zM9.1 136.9h9.1v9.1H9.1zM9.1 146h9.1v9.1H9.1z"/>
  <path d="M9.1 155h9.1v9.1H9.1zM9.1 173.2h9.1v9.1H9.1zM9.1 218.7h9.1v9.1H9.1zM9.1 236.9h9.1v9.1H9.1zM9.1 291.4h9.1v9.1H9.1zM18.2.5h9.1v9.1h-9.1zM18.2 18.7h9.1v9.1h-9.1zM18.2 27.8h9.1v9.1h-9.1zM18.2 36.9h9.1V46h-9.1zM18.2 55h9.1v9.1h-9.1zM18.2 118.7h9.1v9.1h-9.1zM18.2 136.9h9.1v9.1h-9.1z"/>
  <path d="M18.2 146h9.1v9.1h-9.1zM18.2 164.1h9.1v9.1h-9.1zM18.2 209.6h9.1v9.1h-9.1zM18.2 236.9h9.1v9.1h-9.1zM18.2 255h9.1v9.1h-9.1zM18.2 264.1h9.1v9.1h-9.1z"/>
  <path d="M18.2 273.2h9.1v9.1h-9.1zM18.2 291.4h9.1v9.1h-9.1zM27.3.5h9.1v9.1h-9.1zM27.3 18.7h9.1v9.1h-9.1zM27.3 27.8h9.1v9.1h-9.1zM27.3 36.9h9.1V46h-9.1zM27.3 55h9.1v9.1h-9.1zM27.3 91.4h9.1v9.1h-9.1zM27.3 100.5h9.1v9.1h-9.1zM27.3 146h9.1v9.1h-9.1z"/>
  <path d="M27.3 155h9.1v9.1h-9.1zM27.3 164.1h9.1v9.1h-9.1zM27.3 182.3h9.1v9.1h-9.1zM27.3 218.7h9.1v9.1h-9.1zM27.3 236.9h9.1v9.1h-9.1zM27.3 255h9.1v9.1h-9.1zM27.3 264.1h9.1v9.1h-9.1z"/>
  <path d="M27.3 273.2h9.1v9.1h-9.1zM27.3 291.4h9.1v9.1h-9.1zM36.4.5h9.1v9.1h-9.1zM36.4 18.7h9.1v9.1h-9.1zM36.4 27.8h9.1v9.1h-9.1zM36.4 36.9h9.1V46h-9.1zM36.4 55h9.1v9.1h-9.1zM36.4 73.2h9.1v9.1h-9.1zM36.4 91.4h9.1v9.1h-9.1zM36.4 118.7h9.1v9.1h-9.1zM36.4 136.9h9.1v9.1h-9.1zM36.4 173.2h9.1v9.1h-9.1zM36.4 191.4h9.1v9.1h-9.1zM36.4 200.5h9.1v9.1h-9.1zM36.4 209.6h9.1v9.1h-9.1zM36.4 218.7h9.1v9.1h-9.1zM36.4 236.9h9.1v9.1h-9.1zM36.4 255h9.1v9.1h-9.1zM36.4 264.1h9.1v9.1h-9.1z"/>
  <path d="M36.4 273.2h9.1v9.1h-9.1zM36.4 291.4h9.1v9.1h-9.1zM45.5.5h9.1v9.1h-9.1zM45.5 55h9.1v9.1h-9.1zM45.5 73.2h9.1v9.1h-9.1zM45.5 82.3h9.1v9.1h-9.1zM45.5 91.4h9.1v9.1h-9.1zM45.5 100.5h9.1v9.1h-9.1zM45.5 109.6h9.1v9.1h-9.1zM45.5 127.8h9.1v9.1h-9.1zM45.5 136.9h9.1v9.1h-9.1zM45.5 164.1h9.1v9.1h-9.1zM45.5 173.2h9.1v9.1h-9.1zM45.5 182.3h9.1v9.1h-9.1zM45.5 209.6h9.1v9.1h-9.1zM45.5 236.9h9.1v9.1h-9.1zM45.5 291.4h9.1v9.1h-9.1z"/>
  <path d="M54.5.5h9.1v9.1h-9.1zM54.5 9.6h9.1v9.1h-9.1zM54.5 18.7h9.1v9.1h-9.1zM54.5 27.8h9.1v9.1h-9.1zM54.5 36.9h9.1V46h-9.1zM54.5 46h9.1v9.1h-9.1z"/>
  <path d="M54.5 55h9.1v9.1h-9.1zM54.5 73.2h9.1v9.1h-9.1zM54.5 91.4h9.1v9.1h-9.1zM54.5 109.6h9.1v9.1h-9.1zM54.5 127.8h9.1v9.1h-9.1zM54.5 146h9.1v9.1h-9.1zM54.5 164.1h9.1v9.1h-9.1zM54.5 182.3h9.1v9.1h-9.1zM54.5 200.5h9.1v9.1h-9.1zM54.5 218.7h9.1v9.1h-9.1zM54.5 236.9h9.1v9.1h-9.1zM54.5 246h9.1v9.1h-9.1z"/>
  <path d="M54.5 255h9.1v9.1h-9.1zM54.5 264.1h9.1v9.1h-9.1z"/>
  <path d="M54.5 273.2h9.1v9.1h-9.1zM54.5 282.3h9.1v9.1h-9.1z"/>
  <path d="M54.5 291.4h9.1v9.1h-9.1zM63.6 82.3h9.1v9.1h-9.1zM63.6 91.4h9.1v9.1h-9.1zM63.6 100.5h9.1v9.1h-9.1zM63.6 109.6h9.1v9.1h-9.1zM63.6 118.7h9.1v9.1h-9.1zM63.6 146h9.1v9.1h-9.1zM63.6 182.3h9.1v9.1h-9.1zM63.6 209.6h9.1v9.1h-9.1zM63.6 218.7h9.1v9.1h-9.1zM72.7.5h9.1v9.1h-9.1zM72.7 9.6h9.1v9.1h-9.1zM72.7 18.7h9.1v9.1h-9.1zM72.7 27.8h9.1v9.1h-9.1zM72.7 46h9.1v9.1h-9.1z"/>
  <path d="M72.7 55h9.1v9.1h-9.1zM72.7 100.5h9.1v9.1h-9.1zM72.7 109.6h9.1v9.1h-9.1zM72.7 118.7h9.1v9.1h-9.1zM72.7 146h9.1v9.1h-9.1zM72.7 164.1h9.1v9.1h-9.1zM72.7 182.3h9.1v9.1h-9.1zM72.7 191.4h9.1v9.1h-9.1zM72.7 218.7h9.1v9.1h-9.1zM72.7 227.8h9.1v9.1h-9.1zM72.7 246h9.1v9.1h-9.1z"/>
  <path d="M72.7 255h9.1v9.1h-9.1zM72.7 282.3h9.1v9.1h-9.1z"/>
  <path d="M72.7 291.4h9.1v9.1h-9.1zM81.8 18.7h9.1v9.1h-9.1zM81.8 27.8h9.1v9.1h-9.1zM81.8 36.9h9.1V46h-9.1zM81.8 46h9.1v9.1h-9.1zM81.8 91.4h9.1v9.1h-9.1zM81.8 100.5h9.1v9.1h-9.1zM81.8 118.7h9.1v9.1h-9.1zM81.8 155h9.1v9.1h-9.1zM81.8 182.3h9.1v9.1h-9.1zM81.8 227.8h9.1v9.1h-9.1zM81.8 246h9.1v9.1h-9.1zM81.8 273.2h9.1v9.1h-9.1zM90.9 27.8h9.1v9.1h-9.1zM90.9 36.9h9.1V46h-9.1zM90.9 46h9.1v9.1h-9.1z"/>
  <path d="M90.9 55h9.1v9.1h-9.1zM90.9 64.1h9.1v9.1h-9.1zM90.9 73.2h9.1v9.1h-9.1zM90.9 91.4h9.1v9.1h-9.1zM90.9 118.7h9.1v9.1h-9.1zM90.9 136.9h9.1v9.1h-9.1zM90.9 155h9.1v9.1h-9.1zM90.9 173.2h9.1v9.1h-9.1zM90.9 182.3h9.1v9.1h-9.1zM90.9 209.6h9.1v9.1h-9.1zM90.9 218.7h9.1v9.1h-9.1zM90.9 246h9.1v9.1h-9.1z"/>
  <path d="M90.9 255h9.1v9.1h-9.1zM90.9 264.1h9.1v9.1h-9.1zM90.9 282.3h9.1v9.1h-9.1zM100 9.6h9.1v9.1H100zM100 64.1h9.1v9.1H100zM100 73.2h9.1v9.1H100zM100 82.3h9.1v9.1H100zM100 91.4h9.1v9.1H100zM100 100.5h9.1v9.1H100zM100 118.7h9.1v9.1H100zM100 127.8h9.1v9.1H100zM100 136.9h9.1v9.1H100zM100 155h9.1v9.1H100zM100 164.1h9.1v9.1H100zM100 182.3h9.1v9.1H100zM100 200.5h9.1v9.1H100zM100 209.6h9.1v9.1H100zM100 227.8h9.1v9.1H100zM100 236.9h9.1v9.1H100zM100 246h9.1v9.1H100zM100 264.1h9.1v9.1H100z"/>
  <path d="M100 273.2h9.1v9.1H100zM100 282.3h9.1v9.1H100z"/>
  <path d="M100 291.4h9.1v9.1H100zM109.1 9.6h9.1v9.1h-9.1zM109.1 18.7h9.1v9.1h-9.1zM109.1 36.9h9.1V46h-9.1zM109.1 55h9.1v9.1h-9.1zM109.1 91.4h9.1v9.1h-9.1zM109.1 109.6h9.1v9.1h-9.1zM109.1 164.1h9.1v9.1h-9.1zM109.1 173.2h9.1v9.1h-9.1zM109.1 209.6h9.1v9.1h-9.1zM109.1 236.9h9.1v9.1h-9.1zM109.1 255h9.1v9.1h-9.1zM109.1 291.4h9.1v9.1h-9.1zM118.2.5h9.1v9.1h-9.1zM118.2 36.9h9.1V46h-9.1zM118.2 46h9.1v9.1h-9.1zM118.2 73.2h9.1v9.1h-9.1zM118.2 82.3h9.1v9.1h-9.1zM118.2 109.6h9.1v9.1h-9.1zM118.2 118.7h9.1v9.1h-9.1zM118.2 127.8h9.1v9.1h-9.1zM118.2 155h9.1v9.1h-9.1zM118.2 164.1h9.1v9.1h-9.1zM118.2 191.4h9.1v9.1h-9.1zM118.2 200.5h9.1v9.1h-9.1zM118.2 227.8h9.1v9.1h-9.1zM118.2 264.1h9.1v9.1h-9.1z"/>
  <path d="M118.2 273.2h9.1v9.1h-9.1zM127.3.5h9.1v9.1h-9.1zM127.3 27.8h9.1v9.1h-9.1zM127.3 46h9.1v9.1h-9.1z"/>
  <path d="M127.3 55h9.1v9.1h-9.1zM127.3 64.1h9.1v9.1h-9.1zM127.3 82.3h9.1v9.1h-9.1zM127.3 100.5h9.1v9.1h-9.1zM127.3 118.7h9.1v9.1h-9.1zM127.3 146h9.1v9.1h-9.1z"/>
  <path d="M127.3 155h9.1v9.1h-9.1zM127.3 173.2h9.1v9.1h-9.1zM127.3 200.5h9.1v9.1h-9.1zM127.3 209.6h9.1v9.1h-9.1zM127.3 227.8h9.1v9.1h-9.1zM127.3 236.9h9.1v9.1h-9.1zM127.3 246h9.1v9.1h-9.1zM127.3 264.1h9.1v9.1h-9.1zM127.3 282.3h9.1v9.1h-9.1zM136.4 18.7h9.1v9.1h-9.1zM136.4 36.9h9.1V46h-9.1zM136.4 64.1h9.1v9.1h-9.1zM136.4 82.3h9.1v9.1h-9.1zM136.4 91.4h9.1v9.1h-9.1zM136.4 109.6h9.1v9.1h-9.1zM136.4 118.7h9.1v9.1h-9.1zM136.4 127.8h9.1v9.1h-9.1zM136.4 136.9h9.1v9.1h-9.1zM136.4 146h9.1v9.1h-9.1z"/>
  <path d="M136.4 155h9.1v9.1h-9.1zM136.4 164.1h9.1v9.1h-9.1zM136.4 191.4h9.1v9.1h-9.1zM136.4 200.5h9.1v9.1h-9.1zM136.4 209.6h9.1v9.1h-9.1zM136.4 236.9h9.1v9.1h-9.1zM136.4 255h9.1v9.1h-9.1zM136.4 273.2h9.1v9.1h-9.1zM145.5.5h9.1v9.1h-9.1zM145.5 9.6h9.1v9.1h-9.1zM145.5 55h9.1v9.1h-9.1zM145.5 73.2h9.1v9.1h-9.1zM145.5 82.3h9.1v9.1h-9.1zM145.5 109.6h9.1v9.1h-9.1zM145.5 127.8h9.1v9.1h-9.1zM145.5 136.9h9.1v9.1h-9.1zM145.5 155h9.1v9.1h-9.1zM145.5 164.1h9.1v9.1h-9.1zM145.5 191.4h9.1v9.1h-9.1zM145.5 227.8h9.1v9.1h-9.1zM145.5 264.1h9.1v9.1h-9.1z"/>
  <path d="M145.5 273.2h9.1v9.1h-9.1zM145.5 282.3h9.1v9.1h-9.1z"/>
  <path d="M145.5 291.4h9.1v9.1h-9.1zM154.5 18.7h9.1v9.1h-9.1zM154.5 36.9h9.1V46h-9.1zM154.5 64.1h9.1v9.1h-9.1zM154.5 91.4h9.1v9.1h-9.1zM154.5 100.5h9.1v9.1h-9.1zM154.5 109.6h9.1v9.1h-9.1zM154.5 136.9h9.1v9.1h-9.1zM154.5 173.2h9.1v9.1h-9.1zM154.5 182.3h9.1v9.1h-9.1zM154.5 209.6h9.1v9.1h-9.1zM154.5 218.7h9.1v9.1h-9.1zM154.5 236.9h9.1v9.1h-9.1zM154.5 246h9.1v9.1h-9.1zM154.5 264.1h9.1v9.1h-9.1z"/>
  <path d="M154.5 273.2h9.1v9.1h-9.1zM154.5 282.3h9.1v9.1h-9.1zM163.6 18.7h9.1v9.1h-9.1zM163.6 27.8h9.1v9.1h-9.1zM163.6 36.9h9.1V46h-9.1zM163.6 55h9.1v9.1h-9.1zM163.6 64.1h9.1v9.1h-9.1zM163.6 91.4h9.1v9.1h-9.1zM163.6 127.8h9.1v9.1h-9.1zM163.6 136.9h9.1v9.1h-9.1zM163.6 155h9.1v9.1h-9.1zM163.6 200.5h9.1v9.1h-9.1zM163.6 218.7h9.1v9.1h-9.1zM163.6 236.9h9.1v9.1h-9.1zM163.6 282.3h9.1v9.1h-9.1zM172.7 9.6h9.1v9.1h-9.1zM172.7 36.9h9.1V46h-9.1zM172.7 46h9.1v9.1h-9.1zM172.7 73.2h9.1v9.1h-9.1zM172.7 100.5h9.1v9.1h-9.1zM172.7 118.7h9.1v9.1h-9.1zM172.7 136.9h9.1v9.1h-9.1zM172.7 146h9.1v9.1h-9.1z"/>
  <path d="M172.7 155h9.1v9.1h-9.1zM172.7 209.6h9.1v9.1h-9.1zM172.7 218.7h9.1v9.1h-9.1zM172.7 255h9.1v9.1h-9.1zM172.7 282.3h9.1v9.1h-9.1zM181.8 55h9.1v9.1h-9.1zM181.8 127.8h9.1v9.1h-9.1zM181.8 136.9h9.1v9.1h-9.1zM181.8 164.1h9.1v9.1h-9.1zM181.8 191.4h9.1v9.1h-9.1zM181.8 209.6h9.1v9.1h-9.1zM181.8 218.7h9.1v9.1h-9.1zM181.8 246h9.1v9.1h-9.1zM181.8 273.2h9.1v9.1h-9.1zM181.8 291.4h9.1v9.1h-9.1zM190.9.5h9.1v9.1h-9.1zM190.9 18.7h9.1v9.1h-9.1zM190.9 36.9h9.1V46h-9.1zM190.9 46h9.1v9.1h-9.1zM190.9 64.1h9.1v9.1h-9.1zM190.9 73.2h9.1v9.1h-9.1zM190.9 91.4h9.1v9.1h-9.1zM190.9 100.5h9.1v9.1h-9.1zM190.9 109.6h9.1v9.1h-9.1zM190.9 136.9h9.1v9.1h-9.1zM190.9 146h9.1v9.1h-9.1z"/>
  <path d="M190.9 155h9.1v9.1h-9.1zM190.9 173.2h9.1v9.1h-9.1zM190.9 200.5h9.1v9.1h-9.1zM190.9 209.6h9.1v9.1h-9.1zM190.9 236.9h9.1v9.1h-9.1zM190.9 246h9.1v9.1h-9.1zM190.9 273.2h9.1v9.1h-9.1zM190.9 282.3h9.1v9.1h-9.1zM200 9.6h9.1v9.1H200zM200 27.8h9.1v9.1H200zM200 46h9.1v9.1H200z"/>
  <path d="M200 55h9.1v9.1H200zM200 73.2h9.1v9.1H200zM200 82.3h9.1v9.1H200zM200 91.4h9.1v9.1H200zM200 109.6h9.1v9.1H200zM200 118.7h9.1v9.1H200zM200 127.8h9.1v9.1H200zM200 136.9h9.1v9.1H200zM200 182.3h9.1v9.1H200zM200 200.5h9.1v9.1H200zM200 218.7h9.1v9.1H200zM200 227.8h9.1v9.1H200zM200 236.9h9.1v9.1H200zM200 255h9.1v9.1H200zM200 291.4h9.1v9.1H200zM209.1.5h9.1v9.1h-9.1zM209.1 36.9h9.1V46h-9.1zM209.1 82.3h9.1v9.1h-9.1zM209.1 91.4h9.1v9.1h-9.1zM209.1 109.6h9.1v9.1h-9.1zM209.1 118.7h9.1v9.1h-9.1zM209.1 127.8h9.1v9.1h-9.1zM209.1 136.9h9.1v9.1h-9.1zM209.1 155h9.1v9.1h-9.1zM209.1 164.1h9.1v9.1h-9.1zM209.1 173.2h9.1v9.1h-9.1zM209.1 191.4h9.1v9.1h-9.1zM209.1 200.5h9.1v9.1h-9.1zM209.1 218.7h9.1v9.1h-9.1zM209.1 246h9.1v9.1h-9.1zM209.1 282.3h9.1v9.1h-9.1z"/>
  <path d="M209.1 291.4h9.1v9.1h-9.1zM218.2 18.7h9.1v9.1h-9.1zM218.2 55h9.1v9.1h-9.1zM218.2 73.2h9.1v9.1h-9.1zM218.2 100.5h9.1v9.1h-9.1zM218.2 109.6h9.1v9.1h-9.1zM218.2 118.7h9.1v9.1h-9.1zM218.2 127.8h9.1v9.1h-9.1zM218.2 164.1h9.1v9.1h-9.1zM218.2 209.6h9.1v9.1h-9.1zM218.2 218.7h9.1v9.1h-9.1zM218.2 227.8h9.1v9.1h-9.1zM218.2 236.9h9.1v9.1h-9.1zM218.2 246h9.1v9.1h-9.1z"/>
  <path d="M218.2 255h9.1v9.1h-9.1zM218.2 273.2h9.1v9.1h-9.1zM218.2 282.3h9.1v9.1h-9.1z"/>
  <path d="M218.2 291.4h9.1v9.1h-9.1zM227.3 91.4h9.1v9.1h-9.1zM227.3 100.5h9.1v9.1h-9.1zM227.3 118.7h9.1v9.1h-9.1zM227.3 127.8h9.1v9.1h-9.1zM227.3 136.9h9.1v9.1h-9.1zM227.3 155h9.1v9.1h-9.1zM227.3 173.2h9.1v9.1h-9.1zM227.3 218.7h9.1v9.1h-9.1zM227.3 255h9.1v9.1h-9.1zM236.4.5h9.1v9.1h-9.1zM236.4 9.6h9.1v9.1h-9.1zM236.4 18.7h9.1v9.1h-9.1zM236.4 27.8h9.1v9.1h-9.1zM236.4 36.9h9.1V46h-9.1zM236.4 46h9.1v9.1h-9.1z"/>
  <path d="M236.4 55h9.1v9.1h-9.1zM236.4 100.5h9.1v9.1h-9.1zM236.4 109.6h9.1v9.1h-9.1zM236.4 146h9.1v9.1h-9.1zM236.4 164.1h9.1v9.1h-9.1zM236.4 182.3h9.1v9.1h-9.1zM236.4 200.5h9.1v9.1h-9.1zM236.4 218.7h9.1v9.1h-9.1zM236.4 236.9h9.1v9.1h-9.1zM236.4 255h9.1v9.1h-9.1zM236.4 264.1h9.1v9.1h-9.1z"/>
  <path d="M236.4 273.2h9.1v9.1h-9.1zM236.4 282.3h9.1v9.1h-9.1z"/>
  <path d="M236.4 291.4h9.1v9.1h-9.1zM245.5.5h9.1v9.1h-9.1zM245.5 55h9.1v9.1h-9.1zM245.5 73.2h9.1v9.1h-9.1zM245.5 82.3h9.1v9.1h-9.1zM245.5 91.4h9.1v9.1h-9.1zM245.5 127.8h9.1v9.1h-9.1zM245.5 136.9h9.1v9.1h-9.1zM245.5 146h9.1v9.1h-9.1z"/>
  <path d="M245.5 155h9.1v9.1h-9.1zM245.5 164.1h9.1v9.1h-9.1zM245.5 173.2h9.1v9.1h-9.1zM245.5 182.3h9.1v9.1h-9.1zM245.5 191.4h9.1v9.1h-9.1zM245.5 209.6h9.1v9.1h-9.1zM245.5 218.7h9.1v9.1h-9.1zM245.5 255h9.1v9.1h-9.1zM254.5.5h9.1v9.1h-9.1zM254.5 18.7h9.1v9.1h-9.1zM254.5 27.8h9.1v9.1h-9.1zM254.5 36.9h9.1V46h-9.1zM254.5 55h9.1v9.1h-9.1zM254.5 109.6h9.1v9.1h-9.1zM254.5 127.8h9.1v9.1h-9.1zM254.5 136.9h9.1v9.1h-9.1z"/>
  <path d="M254.5 146h9.1v9.1h-9.1zM254.5 164.1h9.1v9.1h-9.1zM254.5 173.2h9.1v9.1h-9.1zM254.5 182.3h9.1v9.1h-9.1zM254.5 200.5h9.1v9.1h-9.1zM254.5 209.6h9.1v9.1h-9.1zM254.5 218.7h9.1v9.1h-9.1zM254.5 227.8h9.1v9.1h-9.1zM254.5 236.9h9.1v9.1h-9.1zM254.5 246h9.1v9.1h-9.1z"/>
  <path d="M254.5 255h9.1v9.1h-9.1zM254.5 264.1h9.1v9.1h-9.1z"/>
  <path d="M254.5 273.2h9.1v9.1h-9.1zM254.5 282.3h9.1v9.1h-9.1z"/>
  <path d="M254.5 291.4h9.1v9.1h-9.1zM263.6.5h9.1v9.1h-9.1zM263.6 18.7h9.1v9.1h-9.1zM263.6 27.8h9.1v9.1h-9.1zM263.6 36.9h9.1V46h-9.1zM263.6 55h9.1v9.1h-9.1zM263.6 73.2h9.1v9.1h-9.1zM263.6 100.5h9.1v9.1h-9.1zM263.6 109.6h9.1v9.1h-9.1zM263.6 127.8h9.1v9.1h-9.1zM263.6 136.9h9.1v9.1h-9.1zM263.6 155h9.1v9.1h-9.1zM263.6 173.2h9.1v9.1h-9.1zM263.6 191.4h9.1v9.1h-9.1zM263.6 218.7h9.1v9.1h-9.1zM263.6 236.9h9.1v9.1h-9.1zM263.6 291.4h9.1v9.1h-9.1z"/>
  <path d="M272.7.5h9.1v9.1h-9.1zM272.7 18.7h9.1v9.1h-9.1zM272.7 27.8h9.1v9.1h-9.1zM272.7 36.9h9.1V46h-9.1zM272.7 55h9.1v9.1h-9.1zM272.7 73.2h9.1v9.1h-9.1zM272.7 82.3h9.1v9.1h-9.1zM272.7 91.4h9.1v9.1h-9.1zM272.7 127.8h9.1v9.1h-9.1zM272.7 164.1h9.1v9.1h-9.1zM272.7 200.5h9.1v9.1h-9.1zM272.7 227.8h9.1v9.1h-9.1zM272.7 264.1h9.1v9.1h-9.1zM281.8.5h9.1v9.1h-9.1zM281.8 55h9.1v9.1h-9.1zM281.8 73.2h9.1v9.1h-9.1zM281.8 91.4h9.1v9.1h-9.1zM281.8 109.6h9.1v9.1h-9.1zM281.8 127.8h9.1v9.1h-9.1zM281.8 164.1h9.1v9.1h-9.1zM281.8 200.5h9.1v9.1h-9.1zM281.8 218.7h9.1v9.1h-9.1zM281.8 227.8h9.1v9.1h-9.1zM281.8 236.9h9.1v9.1h-9.1zM281.8 255h9.1v9.1h-9.1zM281.8 264.1h9.1v9.1h-9.1z"/>
  <path d="M281.8 273.2h9.1v9.1h-9.1zM290.9.5h9.1v9.1h-9.1zM290.9 9.6h9.1v9.1h-9.1zM290.9 18.7h9.1v9.1h-9.1zM290.9 27.8h9.1v9.1h-9.1zM290.9 36.9h9.1V46h-9.1zM290.9 46h9.1v9.1h-9.1z"/>
  <path d="M290.9 55h9.1v9.1h-9.1zM290.9 73.2h9.1v9.1h-9.1zM290.9 109.6h9.1v9.1h-9.1zM290.9 146h9.1v9.1h-9.1zM290.9 182.3h9.1v9.1h-9.1zM290.9 246h9.1v9.1h-9.1zM290.9 264.1h9.1v9.1h-9.1zM290.9 291.4h9.1v9.1h-9.1z"/>
</svg>
